<svg width="21" height="20" viewBox="0 0 21 20" fill="none" xmlns="http://www.w3.org/2000/svg">
<path d="M18.6445 0H1.60156C0.785156 0 0.125 0.644531 0.125 1.44141V18.5547C0.125 19.3516 0.785156 20 1.60156 20H18.6445C19.4609 20 20.125 19.3516 20.125 18.5586V1.44141C20.125 0.644531 19.4609 0 18.6445 0ZM6.05859 17.043H3.08984V7.49609H6.05859V17.043ZM4.57422 6.19531C3.62109 6.19531 2.85156 5.42578 2.85156 4.47656C2.85156 3.52734 3.62109 2.75781 4.57422 2.75781C5.52344 2.75781 6.29297 3.52734 6.29297 4.47656C6.29297 5.42188 5.52344 6.19531 4.57422 6.19531ZM17.168 17.043H14.2031V12.4023C14.2031 11.2969 14.1836 9.87109 12.6602 9.87109C11.1172 9.87109 10.8828 11.0781 10.8828 12.3242V17.043H7.92188V7.49609H10.7656V8.80078H10.8047C11.1992 8.05078 12.168 7.25781 13.6094 7.25781C16.6133 7.25781 17.168 9.23438 17.168 11.8047V17.043Z" fill="#0E0A14"/>
</svg>
