<svg width="47" height="48" viewBox="0 0 47 48" fill="none" xmlns="http://www.w3.org/2000/svg">
<rect width="47" height="48" rx="10" fill="white"/>
<path d="M21 22V17C21 16.7348 21.1054 16.4804 21.2929 16.2929C21.4804 16.1054 21.7348 16 22 16H23L25 14H29L31 16H32C32.2652 16 32.5196 16.1054 32.7071 16.2929C32.8946 16.4804 33 16.7348 33 17V22C33 22.2652 32.8946 22.5196 32.7071 22.7071C32.5196 22.8946 32.2652 23 32 23H22C21.7348 23 21.4804 22.8946 21.2929 22.7071C21.1054 22.5196 21 22.2652 21 22Z" fill="#7253A4" stroke="#7253A4" stroke-width="2" stroke-linecap="round" stroke-linejoin="round"/>
<path d="M27 20C27.5523 20 28 19.5523 28 19C28 18.4477 27.5523 18 27 18C26.4477 18 26 18.4477 26 19C26 19.5523 26.4477 20 27 20Z" fill="#7253A4" stroke="#7253A4" stroke-width="2" stroke-linecap="round" stroke-linejoin="round"/>
<path fill-rule="evenodd" clip-rule="evenodd" d="M18 14H16C15.2044 14 14.4413 14.3161 13.8787 14.8787C13.3161 15.4413 13 16.2044 13 17V27.5C13 27.586 13.011 27.67 13.032 27.75C13.0108 27.8316 13.0001 27.9157 13 28V31C13 31.7956 13.3161 32.5587 13.8787 33.1213C14.4413 33.6839 15.2044 34 16 34H30C30.7956 34 31.5587 33.6839 32.1213 33.1213C32.6839 32.5587 33 31.7956 33 31V26H22.335C22.902 26.246 23.492 26.544 24.076 26.895C25.475 27.735 26.897 28.915 27.854 30.478C27.9226 30.59 27.9684 30.7144 27.9888 30.8442C28.0093 30.9739 28.004 31.1064 27.9733 31.2341C27.9425 31.3617 27.887 31.4821 27.8097 31.5883C27.7324 31.6945 27.635 31.7845 27.523 31.853C27.411 31.9216 27.2866 31.9674 27.1568 31.9878C27.0271 32.0083 26.8946 32.003 26.7669 31.9723C26.6393 31.9415 26.5189 31.886 26.4127 31.8087C26.3065 31.7314 26.2165 31.634 26.148 31.522C25.412 30.319 24.27 29.344 23.046 28.609C21.824 27.875 20.581 27.417 19.719 27.217C18.5047 26.9397 17.2614 26.8101 16.016 26.831H15.994C15.646 26.836 15.314 26.851 15 26.876V17C15 16.7348 15.1054 16.4804 15.2929 16.2929C15.4804 16.1054 15.7348 16 16 16H18V14ZM18 18.473C17.9926 18.478 17.9853 18.483 17.978 18.488C17.408 18.898 17 19.574 17 20.5C17 21.426 17.408 22.101 17.978 22.511L18 22.527V18.473Z" fill="#7253A4"/>
</svg>
