<svg width="39" height="37" viewBox="0 0 39 37" fill="none" xmlns="http://www.w3.org/2000/svg">
<path d="M33.8853 21.5548H32.2889V6.55481H33.8853C34.3087 6.55481 34.7148 6.39677 35.0142 6.11547C35.3135 5.83417 35.4817 5.45263 35.4817 5.05481C35.4817 4.65698 35.3135 4.27545 35.0142 3.99415C34.7148 3.71284 34.3087 3.55481 33.8853 3.55481H5.15011C4.72672 3.55481 4.32067 3.71284 4.02129 3.99415C3.7219 4.27545 3.55371 4.65698 3.55371 5.05481C3.55371 5.45263 3.7219 5.83417 4.02129 6.11547C4.32067 6.39677 4.72672 6.55481 5.15011 6.55481H6.74651V21.5548H5.15011C4.72672 21.5548 4.32067 21.7128 4.02129 21.9942C3.7219 22.2755 3.55371 22.657 3.55371 23.0548C3.55371 23.4526 3.7219 23.8342 4.02129 24.1155C4.32067 24.3968 4.72672 24.5548 5.15011 24.5548H17.9213V26.2798L10.6577 30.7798C10.3597 30.9531 10.1307 31.2138 10.006 31.5215C9.8813 31.8293 9.86785 32.167 9.96772 32.4827C10.0676 32.7983 10.2752 33.0743 10.5586 33.2681C10.842 33.4618 11.1853 33.5626 11.5357 33.5548C11.8496 33.5582 12.1566 33.469 12.4137 33.2998L17.9213 29.8798V32.0548C17.9213 32.4526 18.0895 32.8342 18.3889 33.1155C18.6883 33.3968 19.0943 33.5548 19.5177 33.5548C19.9411 33.5548 20.3472 33.3968 20.6465 33.1155C20.9459 32.8342 21.1141 32.4526 21.1141 32.0548V29.8798L26.6217 33.2998C26.8788 33.469 27.1859 33.5582 27.4997 33.5548C27.8408 33.5523 28.1721 33.4473 28.445 33.2551C28.7179 33.0628 28.9181 32.7935 29.0162 32.4866C29.1144 32.1797 29.1054 31.8513 28.9905 31.5495C28.8756 31.2478 28.6609 30.9885 28.3777 30.8098L21.1141 26.3098V24.5548H33.8853C34.3087 24.5548 34.7148 24.3968 35.0142 24.1155C35.3135 23.8342 35.4817 23.4526 35.4817 23.0548C35.4817 22.657 35.3135 22.2755 35.0142 21.9942C34.7148 21.7128 34.3087 21.5548 33.8853 21.5548ZM29.0961 21.5548H9.93931V6.55481H29.0961V21.5548ZM15.7023 18.9448C16.1278 19.181 16.613 19.3056 17.1072 19.3056C17.6014 19.3056 18.0865 19.181 18.512 18.9448L23.3012 16.3348C23.7106 16.0987 24.0488 15.7679 24.2834 15.374C24.518 14.98 24.6411 14.5362 24.6411 14.0848C24.6411 13.6334 24.518 13.1896 24.2834 12.7957C24.0488 12.4017 23.7106 12.0709 23.3012 11.8348L18.512 9.22481C18.0865 8.98861 17.6014 8.864 17.1072 8.864C16.613 8.864 16.1278 8.98861 15.7023 9.22481C15.2736 9.45191 14.9181 9.7837 14.6737 10.1851C14.4292 10.5864 14.3047 11.0424 14.3135 11.5048V16.7248C14.3161 17.177 14.446 17.6206 14.6899 18.0104C14.9338 18.4003 15.2831 18.7227 15.7023 18.9448ZM17.5063 12.0748L21.1141 14.0548L17.4743 16.0348L17.5063 12.0748Z" fill="white"/>
</svg>
