<svg width="40" height="37" viewBox="0 0 40 37" fill="none" xmlns="http://www.w3.org/2000/svg">
<path d="M26.3558 21.5548H13.5845C13.1612 21.5548 12.7551 21.7128 12.4557 21.9942C12.1563 22.2755 11.9881 22.657 11.9881 23.0548C11.9881 23.4526 12.1563 23.8342 12.4557 24.1155C12.7551 24.3968 13.1612 24.5548 13.5845 24.5548H26.3558C26.7791 24.5548 27.1852 24.3968 27.4846 24.1155C27.784 23.8342 27.9522 23.4526 27.9522 23.0548C27.9522 22.657 27.784 22.2755 27.4846 21.9942C27.1852 21.7128 26.7791 21.5548 26.3558 21.5548ZM26.3558 15.5548H16.7773C16.354 15.5548 15.9479 15.7128 15.6485 15.9942C15.3491 16.2755 15.1809 16.657 15.1809 17.0548C15.1809 17.4526 15.3491 17.8342 15.6485 18.1155C15.9479 18.3968 16.354 18.5548 16.7773 18.5548H26.3558C26.7791 18.5548 27.1852 18.3968 27.4846 18.1155C27.784 17.8342 27.9522 17.4526 27.9522 17.0548C27.9522 16.657 27.784 16.2755 27.4846 15.9942C27.1852 15.7128 26.7791 15.5548 26.3558 15.5548ZM32.7414 6.55481H27.9522V5.05481C27.9522 4.65698 27.784 4.27545 27.4846 3.99415C27.1852 3.71284 26.7791 3.55481 26.3558 3.55481C25.9324 3.55481 25.5263 3.71284 25.2269 3.99415C24.9275 4.27545 24.7593 4.65698 24.7593 5.05481V6.55481H21.5665V5.05481C21.5665 4.65698 21.3984 4.27545 21.099 3.99415C20.7996 3.71284 20.3935 3.55481 19.9701 3.55481C19.5468 3.55481 19.1407 3.71284 18.8413 3.99415C18.5419 4.27545 18.3737 4.65698 18.3737 5.05481V6.55481H15.1809V5.05481C15.1809 4.65698 15.0128 4.27545 14.7134 3.99415C14.414 3.71284 14.0079 3.55481 13.5845 3.55481C13.1612 3.55481 12.7551 3.71284 12.4557 3.99415C12.1563 4.27545 11.9881 4.65698 11.9881 5.05481V6.55481H7.19894C6.77555 6.55481 6.3695 6.71285 6.07011 6.99415C5.77073 7.27545 5.60254 7.65698 5.60254 8.05481V29.0548C5.60254 30.2483 6.10711 31.3929 7.00526 32.2368C7.90341 33.0807 9.12157 33.5548 10.3917 33.5548H29.5486C30.8187 33.5548 32.0369 33.0807 32.935 32.2368C33.8332 31.3929 34.3378 30.2483 34.3378 29.0548V8.05481C34.3378 7.65698 34.1696 7.27545 33.8702 6.99415C33.5708 6.71285 33.1647 6.55481 32.7414 6.55481ZM31.145 29.0548C31.145 29.4526 30.9768 29.8342 30.6774 30.1155C30.378 30.3968 29.9719 30.5548 29.5486 30.5548H10.3917C9.96835 30.5548 9.5623 30.3968 9.26292 30.1155C8.96353 29.8342 8.79534 29.4526 8.79534 29.0548V9.55481H11.9881V11.0548C11.9881 11.4526 12.1563 11.8342 12.4557 12.1155C12.7551 12.3968 13.1612 12.5548 13.5845 12.5548C14.0079 12.5548 14.414 12.3968 14.7134 12.1155C15.0128 11.8342 15.1809 11.4526 15.1809 11.0548V9.55481H18.3737V11.0548C18.3737 11.4526 18.5419 11.8342 18.8413 12.1155C19.1407 12.3968 19.5468 12.5548 19.9701 12.5548C20.3935 12.5548 20.7996 12.3968 21.099 12.1155C21.3984 11.8342 21.5665 11.4526 21.5665 11.0548V9.55481H24.7593V11.0548C24.7593 11.4526 24.9275 11.8342 25.2269 12.1155C25.5263 12.3968 25.9324 12.5548 26.3558 12.5548C26.7791 12.5548 27.1852 12.3968 27.4846 12.1155C27.784 11.8342 27.9522 11.4526 27.9522 11.0548V9.55481H31.145V29.0548Z" fill="white"/>
</svg>

